<?xml version="1.0" encoding="utf-8"?>
<!-- Generator: Adobe Illustrator 21.1.0, SVG Export Plug-In . SVG Version: 6.00 Build 0)  -->
<svg version="1.1" id="Слой_1" xmlns="http://www.w3.org/2000/svg" xmlns:xlink="http://www.w3.org/1999/xlink" x="0px" y="0px"
	 viewBox="0 0 1000 1000" style="enable-background:new 0 0 1000 1000;" xml:space="preserve">
<style type="text/css">
	.st0{clip-path:url(#SVGID_2_);fill:#31C6CD;}
	.st1{clip-path:url(#SVGID_2_);fill:#31C7CD;}
	.st2{clip-path:url(#SVGID_2_);fill:#31B9C6;}
	.st3{clip-path:url(#SVGID_2_);fill:#31BCC8;}
	.st4{clip-path:url(#SVGID_2_);fill:#31BDC8;}
	.st5{clip-path:url(#SVGID_2_);fill:#31BEC9;}
	.st6{clip-path:url(#SVGID_2_);fill:#31C5CC;}
	.st7{clip-path:url(#SVGID_2_);fill:#31C4CC;}
	.st8{clip-path:url(#SVGID_2_);fill:#31C3CB;}
	.st9{clip-path:url(#SVGID_2_);fill:#31C2CB;}
	.st10{clip-path:url(#SVGID_2_);fill:#31C1CA;}
	.st11{clip-path:url(#SVGID_2_);fill:#31C0CA;}
	.st12{clip-path:url(#SVGID_2_);fill:#31BFC9;}
	.st13{clip-path:url(#SVGID_2_);fill:#31BBC7;}
	.st14{clip-path:url(#SVGID_2_);fill:#31BAC7;}
	.st15{clip-path:url(#SVGID_2_);fill:#31B8C6;}
	.st16{clip-path:url(#SVGID_2_);fill:#31B7C6;}
	.st17{clip-path:url(#SVGID_2_);fill:#31B6C5;}
	.st18{clip-path:url(#SVGID_2_);fill:#31B5C5;}
	.st19{clip-path:url(#SVGID_2_);fill:#31B4C4;}
	.st20{clip-path:url(#SVGID_2_);fill:#31B3C4;}
	.st21{clip-path:url(#SVGID_2_);fill:#31B2C3;}
	.st22{clip-path:url(#SVGID_2_);fill:#31B1C3;}
	.st23{clip-path:url(#SVGID_2_);fill:#31B0C2;}
	.st24{clip-path:url(#SVGID_2_);fill:#31AFC2;}
	.st25{clip-path:url(#SVGID_2_);fill:#31AEC1;}
	.st26{clip-path:url(#SVGID_2_);fill:#31ADC1;}
	.st27{clip-path:url(#SVGID_2_);fill:#31ACC0;}
	.st28{clip-path:url(#SVGID_2_);fill:#31ABC0;}
	.st29{clip-path:url(#SVGID_2_);fill:#31AABF;}
	.st30{clip-path:url(#SVGID_2_);fill:#31A9BF;}
	.st31{clip-path:url(#SVGID_2_);fill:#31A8BF;}
	.st32{clip-path:url(#SVGID_2_);fill:#31A7BE;}
	.st33{clip-path:url(#SVGID_2_);fill:#31A6BE;}
	.st34{clip-path:url(#SVGID_2_);fill:#31A5BD;}
	.st35{clip-path:url(#SVGID_2_);fill:#31A4BD;}
	.st36{clip-path:url(#SVGID_2_);fill:#31A3BC;}
	.st37{clip-path:url(#SVGID_2_);fill:#31A2BC;}
	.st38{clip-path:url(#SVGID_2_);fill:#30A0BB;}
	.st39{clip-path:url(#SVGID_2_);fill:#309FBB;}
	.st40{clip-path:url(#SVGID_2_);fill:#309EBA;}
	.st41{clip-path:url(#SVGID_2_);fill:#309DBA;}
	.st42{clip-path:url(#SVGID_2_);fill:#309CB9;}
	.st43{clip-path:url(#SVGID_2_);fill:#309BB9;}
	.st44{clip-path:url(#SVGID_2_);fill:#309AB8;}
	.st45{clip-path:url(#SVGID_2_);fill:#3099B8;}
	.st46{clip-path:url(#SVGID_2_);fill:#3098B8;}
	.st47{clip-path:url(#SVGID_2_);fill:#3097B7;}
	.st48{clip-path:url(#SVGID_2_);fill:#3096B7;}
	.st49{clip-path:url(#SVGID_2_);fill:#3095B6;}
	.st50{clip-path:url(#SVGID_2_);fill:#3094B6;}
	.st51{clip-path:url(#SVGID_2_);fill:#3093B5;}
	.st52{clip-path:url(#SVGID_2_);fill:#3092B5;}
	.st53{clip-path:url(#SVGID_2_);fill:#3091B4;}
	.st54{clip-path:url(#SVGID_2_);fill:#3090B4;}
	.st55{clip-path:url(#SVGID_2_);fill:#308FB3;}
	.st56{clip-path:url(#SVGID_2_);fill:#308EB3;}
	.st57{clip-path:url(#SVGID_2_);fill:#308DB2;}
	.st58{clip-path:url(#SVGID_2_);fill:#308CB2;}
	.st59{clip-path:url(#SVGID_2_);fill:#308BB1;}
	.st60{clip-path:url(#SVGID_2_);fill:#308AB1;}
	.st61{clip-path:url(#SVGID_2_);fill:#3089B1;}
	.st62{clip-path:url(#SVGID_2_);fill:#3088B0;}
	.st63{clip-path:url(#SVGID_2_);fill:#3087B0;}
	.st64{clip-path:url(#SVGID_2_);fill:#3086AF;}
	.st65{clip-path:url(#SVGID_2_);fill:#3085AF;}
	.st66{clip-path:url(#SVGID_2_);fill:#3084AE;}
	.st67{clip-path:url(#SVGID_2_);fill:#3083AE;}
	.st68{clip-path:url(#SVGID_2_);fill:#3082AD;}
	.st69{clip-path:url(#SVGID_2_);fill:#3081AD;}
	.st70{clip-path:url(#SVGID_2_);fill:#3080AC;}
	.st71{clip-path:url(#SVGID_2_);fill:#307FAC;}
	.st72{clip-path:url(#SVGID_2_);fill:#307EAB;}
	.st73{clip-path:url(#SVGID_2_);fill:#307DAB;}
	.st74{clip-path:url(#SVGID_2_);fill:#307CAA;}
	.st75{clip-path:url(#SVGID_2_);fill:#307BAA;}
	.st76{fill:#00C8FF;}
</style>
<g>
	<path d="M128.9,479.8c0,0-52.1,0-52.1,0c-0.4,0-0.7,0-1.1-0.1c-4.1-0.4-7.5-3.2-8.9-6.9c-0.5-1.2-0.7-2.5-0.7-3.8v-93.6
		c0,0,0,0,0-0.1c0,0,0,0,0-0.1c0-5.9,4.8-10.8,10.8-10.8c0,0,0.1,0,0.1,0c0,0,0,0,0.1,0h46.6c0,0,0,0,0,0c26.3,0,42,29.5,27.3,51.4
		c-0.1,0.1-0.2,0.3-0.3,0.4c-0.4,0.5-0.8,1.1-1.2,1.6c0.4-0.5,0.8-1.1,1.2-1.6C177.2,436.9,162.5,479.8,128.9,479.8z M140.4,436.6
		c-5.1-7.5-12.9-6-16.6-6.2l-19.3,0c-0.1,0-0.2,0-0.3,0c-5.9,0-10.8-4.8-10.8-10.8c0,0,0,0,0,0s0,0,0,0c0-5.5,4.2-10.1,9.7-10.7
		c0.4,0,0.7-0.1,1.1-0.1c0,0,0,0,0,0l17.5,0h2c0,0,0,0,0,0h0c14.6-0.2,14.9-22.2,0.5-22.7l-36.7,0v72.1h41.3
		C140.1,458.3,146.6,445.7,140.4,436.6z M121.7,430.4h2.2c-0.1,0-0.2,0-0.3,0c0,0,0,0,0,0L121.7,430.4z M125.8,430.3
		c7.2-0.5,14-3.4,19.3-8.1C139.8,427,133,429.8,125.8,430.3z M126.8,408.9h2c0.2,0,0.5,0,0.7,0C128.6,408.9,127.7,408.9,126.8,408.9
		h2C128.9,408.9,126.8,408.9,126.8,408.9z M147.8,419.7c-0.3,0.4-0.7,0.8-1.1,1.1C147.1,420.5,147.4,420.1,147.8,419.7z
		 M148.1,419.4c0.3-0.4,0.7-0.8,1-1.2C148.7,418.6,148.4,419,148.1,419.4z"/>
</g>
<g>
	<path d="M281.7,469.1C281.7,469.1,281.7,469.1,281.7,469.1c0,0.1,0,0.3,0,0.4h0c-0.2,5.8-4.9,10.4-10.7,10.4
		c-3.3,0-6.3-1.5-8.2-3.8l0,0l-60.4-71.2v64.3c0,5.9-4.8,10.8-10.8,10.8c-5.9,0-10.8-4.8-10.8-10.8v-93.6c0-0.1,0-0.3,0-0.4
		c0-0.1,0-0.2,0-0.4c0-0.2,0-0.4,0-0.5c0-0.2,0-0.3,0.1-0.5c0-0.2,0.1-0.4,0.1-0.5c0-0.2,0.1-0.3,0.1-0.5c0-0.2,0.1-0.4,0.2-0.5
		c0.1-0.2,0.1-0.3,0.2-0.5c0.1-0.2,0.1-0.3,0.2-0.5c0.1-0.2,0.1-0.3,0.2-0.4c0.1-0.2,0.2-0.3,0.2-0.5c0.1-0.1,0.2-0.3,0.3-0.4
		c0.1-0.1,0.2-0.3,0.3-0.4c0.1-0.1,0.2-0.3,0.3-0.4c0.1-0.1,0.2-0.3,0.3-0.4c0.1-0.1,0.2-0.3,0.4-0.4c0.1-0.1,0.2-0.2,0.3-0.3
		c0.1-0.1,0.3-0.3,0.4-0.4c0.1-0.1,0.2-0.2,0.3-0.3c0.1-0.1,0.3-0.2,0.5-0.3c0.1-0.1,0.2-0.2,0.4-0.3c0.2-0.1,0.3-0.2,0.5-0.3
		c0.1-0.1,0.2-0.1,0.4-0.2c0.2-0.1,0.4-0.2,0.6-0.3c0.1-0.1,0.2-0.1,0.4-0.2c0.2-0.1,0.4-0.1,0.6-0.2c0.1,0,0.3-0.1,0.4-0.1
		c0.2-0.1,0.4-0.1,0.6-0.2c0.1,0,0.2-0.1,0.4-0.1c0.2,0,0.5-0.1,0.7-0.1c0.1,0,0.2,0,0.3,0c0.4,0,0.7-0.1,1.1-0.1
		c0.4,0,0.7,0,1.1,0.1c2.5,0.3,4.8,1.4,6.5,3.1c0,0,0,0,0,0c0.2,0.2,0.3,0.4,0.5,0.6c0,0.1,0.1,0.1,0.1,0.2l0,0l60.4,71.2v-64.3v0
		c0-5.9,4.8-10.8,10.8-10.8s10.8,4.8,10.8,10.8L281.7,469.1C281.7,469.1,281.7,469.1,281.7,469.1z"/>
</g>
<g>
	<path d="M402.7,458.4L402.7,458.4c0,1.5-0.3,3-0.9,4.3c-0.6,1.3-1.4,2.5-2.4,3.4l0,0c0,0,0,0,0,0c0,0,0,0,0,0c0,0,0,0,0,0
		c0,0,0,0,0,0c0,0,0,0,0,0c0,0,0,0,0,0c-29.5,27.6-79.9,18.7-96.4-20.2c-3-7.1-4.7-15-4.7-23.1c0-52.5,63.1-78.8,100.6-42.8l0,0
		c2,2,3.3,4.7,3.3,7.7c0,5.9-4.8,10.8-10.8,10.8c-2.9,0-5.5-1.2-7.5-3l0,0c-24.1-23.2-64.1-5.9-64.1,27.3
		c0,31.4,35.7,48.8,61.5,30.4v-18.7h-27.6c-5.9,0-10.8-4.8-10.8-10.8c0-5.9,4.8-10.8,10.8-10.8h38.3c5.9,0,10.8,4.8,10.8,10.8V458.4
		z"/>
</g>
<g>
	<g>
		<g>
			<defs>
				<path id="SVGID_1_" d="M503.1,469.1c0,5.9-4.8,10.8-10.8,10.8l-62.5-0.1c0,0,0.1,0,0.1,0c-1.4,0-2.8-0.2-4.1-0.8
					c-7.5-3-8.3-11.6-4.4-16.7c0,0.1-0.1,0.1-0.1,0.2c0.1-0.1,0.1-0.2,0.2-0.2c0.1-0.2,0.3-0.3,0.4-0.4c0,0,0,0,0,0c0,0,0,0,0,0
					c0.1-0.1,0.2-0.3,0.4-0.4c19.1-20.7,36.5-32.7,46.6-42.3c0,0,0,0,0,0c21.3-20.3,0.5-34.1-7.3-34c-8.6,0-16,4.4-19.3,10.2
					c-1.8,3.4-5.4,5.7-9.5,5.7c-4.9,0-9-3.3-10.3-7.8c-0.1-0.2-0.1-0.5-0.2-0.8c0-0.1,0-0.1,0-0.2c-0.5-2.4-0.2-4.9,1.2-7.3
					c7.6-13.7,23.1-21.6,38.3-21.5v0c27.4,0,57.4,37.5,22.1,71.1c-7.4,7-16.8,14.1-27.6,23.7h36.2
					C498.3,458.2,503.1,463.1,503.1,469.1z M419.8,465c0.1-0.3,0.2-0.5,0.4-0.8C420.1,464.5,419.9,464.8,419.8,465z M420.2,464.2
					c0-0.1,0.1-0.2,0.1-0.3C420.3,464,420.2,464.1,420.2,464.2z M420.3,464c0.1-0.2,0.2-0.3,0.3-0.5
					C420.5,463.6,420.4,463.8,420.3,464z M420.8,463.1c-0.1,0.1-0.1,0.2-0.2,0.3C420.7,463.3,420.7,463.2,420.8,463.1z M420.8,463.1
					c0.1-0.2,0.2-0.3,0.3-0.5C421,462.8,420.9,463,420.8,463.1z M421.1,462.6c0.1-0.1,0.1-0.2,0.2-0.3
					C421.3,462.5,421.2,462.6,421.1,462.6z M429.8,458.2c-0.3,0-0.6,0-0.9,0C429.2,458.2,429.5,458.2,429.8,458.2z M432,479.5
					c-0.1,0-0.1,0-0.2,0C431.9,479.5,432,479.5,432,479.5z M433.2,479.2c-0.1,0-0.1,0.1-0.2,0.1
					C433.1,479.2,433.1,479.2,433.2,479.2z M434.2,478.8c-0.1,0-0.2,0.1-0.3,0.1C434,478.9,434.1,478.9,434.2,478.8z M435.1,478.4
					c0,0-0.1,0-0.1,0.1C435,478.4,435.1,478.4,435.1,478.4z M436.2,477.7c-0.1,0.1-0.1,0.1-0.2,0.2
					C436,477.8,436.1,477.7,436.2,477.7z M437,477c-0.1,0.1-0.2,0.1-0.2,0.2C436.9,477.1,436.9,477.1,437,477z"/>
			</defs>
			<clipPath id="SVGID_2_">
				<use xlink:href="#SVGID_1_"  style="overflow:visible;"/>
			</clipPath>
			<rect x="436.8" y="477" class="st0" width="0.2" height="0.2"/>
			<rect x="436" y="477.7" class="st0" width="0.2" height="0.2"/>
			<rect x="435" y="478.4" class="st1" width="0.1" height="0.1"/>
			<rect x="433.9" y="478.8" class="st1" width="0.3" height="0.1"/>
			<rect x="433" y="479.2" class="st1" width="0.2" height="0.1"/>
			<rect x="431.8" y="479.5" class="st1" width="0.2" height="0"/>
			<rect x="428.9" y="458.2" class="st2" width="0.9" height="0"/>
			<rect x="421.1" y="462.4" class="st3" width="0.2" height="0.3"/>
			<rect x="420.8" y="463" class="st4" width="0.3" height="0.2"/>
			<rect x="420.8" y="462.6" class="st3" width="0.3" height="0.3"/>
			<rect x="420.6" y="463.1" class="st4" width="0.2" height="0.3"/>
			<rect x="420.3" y="463.4" class="st4" width="0.3" height="0.5"/>
			<rect x="420.2" y="464" class="st4" width="0.1" height="0.3"/>
			<rect x="419.8" y="464.5" class="st5" width="0.4" height="0.5"/>
			<rect x="419.8" y="464.2" class="st4" width="0.4" height="0.3"/>
			<path class="st1" d="M417.5,479.8h101.6H417.5z"/>
			<rect x="417.5" y="478.3" class="st1" width="101.6" height="1.5"/>
			<rect x="417.5" y="476.8" class="st0" width="101.6" height="1.5"/>
			<rect x="417.5" y="475.2" class="st6" width="101.6" height="1.5"/>
			<rect x="417.5" y="473.7" class="st7" width="101.6" height="1.5"/>
			<rect x="417.5" y="472.2" class="st8" width="101.6" height="1.5"/>
			<rect x="417.5" y="470.6" class="st9" width="101.6" height="1.5"/>
			<rect x="417.5" y="469.1" class="st10" width="101.6" height="1.5"/>
			<rect x="417.5" y="467.6" class="st11" width="101.6" height="1.5"/>
			<rect x="417.5" y="466" class="st12" width="101.6" height="1.5"/>
			<rect x="417.5" y="464.5" class="st5" width="101.6" height="1.5"/>
			<rect x="417.5" y="463" class="st4" width="101.6" height="1.5"/>
			<rect x="417.5" y="461.4" class="st3" width="101.6" height="1.5"/>
			<rect x="417.5" y="459.9" class="st13" width="101.6" height="1.5"/>
			<rect x="417.5" y="458.4" class="st14" width="101.6" height="1.5"/>
			<rect x="417.5" y="456.8" class="st2" width="101.6" height="1.5"/>
			<rect x="417.5" y="455.3" class="st15" width="101.6" height="1.5"/>
			<rect x="417.5" y="453.8" class="st16" width="101.6" height="1.5"/>
			<rect x="417.5" y="452.2" class="st17" width="101.6" height="1.5"/>
			<rect x="417.5" y="450.7" class="st18" width="101.6" height="1.5"/>
			<rect x="417.5" y="449.2" class="st19" width="101.6" height="1.5"/>
			<rect x="417.5" y="447.6" class="st20" width="101.6" height="1.5"/>
			<rect x="417.5" y="446.1" class="st21" width="101.6" height="1.5"/>
			<rect x="417.5" y="444.6" class="st22" width="101.6" height="1.5"/>
			<rect x="417.5" y="443" class="st23" width="101.6" height="1.5"/>
			<rect x="417.5" y="441.5" class="st24" width="101.6" height="1.5"/>
			<rect x="417.5" y="440" class="st25" width="101.6" height="1.5"/>
			<rect x="417.5" y="438.4" class="st26" width="101.6" height="1.5"/>
			<rect x="417.5" y="436.9" class="st27" width="101.6" height="1.5"/>
			<rect x="417.5" y="435.4" class="st28" width="101.6" height="1.5"/>
			<rect x="417.5" y="433.9" class="st29" width="101.6" height="1.5"/>
			<rect x="417.5" y="432.3" class="st30" width="101.6" height="1.5"/>
			<rect x="417.5" y="430.8" class="st31" width="101.6" height="1.5"/>
			<rect x="417.5" y="429.3" class="st32" width="101.6" height="1.5"/>
			<rect x="417.5" y="427.7" class="st33" width="101.6" height="1.5"/>
			<rect x="417.5" y="426.2" class="st34" width="101.6" height="1.5"/>
			<rect x="417.5" y="424.7" class="st35" width="101.6" height="1.5"/>
			<rect x="417.5" y="423.1" class="st36" width="101.6" height="1.5"/>
			<rect x="417.5" y="421.6" class="st37" width="101.6" height="1.5"/>
			<rect x="417.5" y="420.1" class="st38" width="101.6" height="1.5"/>
			<rect x="417.5" y="418.5" class="st39" width="101.6" height="1.5"/>
			<rect x="417.5" y="417" class="st40" width="101.6" height="1.5"/>
			<rect x="417.5" y="415.5" class="st41" width="101.6" height="1.5"/>
			<rect x="417.5" y="413.9" class="st42" width="101.6" height="1.5"/>
			<rect x="417.5" y="412.4" class="st43" width="101.6" height="1.5"/>
			<rect x="417.5" y="410.9" class="st44" width="101.6" height="1.5"/>
			<rect x="417.5" y="409.3" class="st45" width="101.6" height="1.5"/>
			<rect x="417.5" y="407.8" class="st46" width="101.6" height="1.5"/>
			<rect x="417.5" y="406.3" class="st47" width="101.6" height="1.5"/>
			<rect x="417.5" y="404.7" class="st48" width="101.6" height="1.5"/>
			<rect x="417.5" y="403.2" class="st49" width="101.6" height="1.5"/>
			<rect x="417.5" y="401.7" class="st50" width="101.6" height="1.5"/>
			<rect x="417.5" y="400.1" class="st51" width="101.6" height="1.5"/>
			<rect x="417.5" y="398.6" class="st52" width="101.6" height="1.5"/>
			<rect x="417.5" y="397.1" class="st53" width="101.6" height="1.5"/>
			<rect x="417.5" y="395.5" class="st54" width="101.6" height="1.5"/>
			<rect x="417.5" y="394" class="st55" width="101.6" height="1.5"/>
			<rect x="417.5" y="392.5" class="st56" width="101.6" height="1.5"/>
			<rect x="417.5" y="391" class="st57" width="101.6" height="1.5"/>
			<rect x="417.5" y="389.4" class="st58" width="101.6" height="1.5"/>
			<rect x="417.5" y="387.9" class="st59" width="101.6" height="1.5"/>
			<rect x="417.5" y="386.4" class="st60" width="101.6" height="1.5"/>
			<rect x="417.5" y="384.8" class="st61" width="101.6" height="1.5"/>
			<rect x="417.5" y="383.3" class="st62" width="101.6" height="1.5"/>
			<rect x="417.5" y="381.8" class="st63" width="101.6" height="1.5"/>
			<rect x="417.5" y="380.2" class="st64" width="101.6" height="1.5"/>
			<rect x="417.5" y="378.7" class="st65" width="101.6" height="1.5"/>
			<rect x="417.5" y="377.2" class="st66" width="101.6" height="1.5"/>
			<rect x="417.5" y="375.6" class="st67" width="101.6" height="1.5"/>
			<rect x="417.5" y="374.1" class="st68" width="101.6" height="1.5"/>
			<rect x="417.5" y="372.6" class="st69" width="101.6" height="1.5"/>
			<rect x="417.5" y="371" class="st70" width="101.6" height="1.5"/>
			<rect x="417.5" y="369.5" class="st71" width="101.6" height="1.5"/>
			<rect x="417.5" y="368" class="st72" width="101.6" height="1.5"/>
			<rect x="417.5" y="366.4" class="st73" width="101.6" height="1.5"/>
			<rect x="417.5" y="364.9" class="st74" width="101.6" height="1.5"/>
			<rect x="417.5" y="363.4" class="st75" width="101.6" height="1.5"/>
			<rect x="417.5" y="363.3" class="st75" width="101.6" height="0.1"/>
		</g>
	</g>
</g>
<g>
	<path d="M720.7,379.2L720.7,379.2l-44.1,93.5l0,0.1c-0.1,0.1-0.1,0.3-0.2,0.4c-0.2,0.3-0.4,0.6-0.6,0.9c-0.6,0.9-1.4,1.7-2.3,2.5
		c0,0,0,0,0,0c0,0,0,0,0,0c-0.3,0.3-0.7,0.5-1.1,0.8c0,0,0,0-0.1,0c-0.3,0.2-0.7,0.4-1.1,0.6c0,0-0.1,0-0.1,0.1
		c-0.4,0.2-0.7,0.3-1.1,0.5c-0.4,0.2-0.9,0.3-1.3,0.5c0,0,0,0,0,0c0,0,0,0,0,0c-0.1,0-0.1,0-0.2,0c0,0-0.1,0-0.1,0
		c-0.4,0.1-0.8,0.2-1.2,0.3c0,0,0,0,0,0c0,0,0,0-0.1,0c0,0,0,0,0,0c0,0,0,0,0,0c-0.3,0.1-0.5,0.1-0.8,0.1c-0.2,0-0.5,0.1-0.7,0.1
		c0,0-0.1,0-0.1,0c-0.5,0.1-1.1,0.1-1.6,0.1c-0.2,0-0.4,0-0.7,0c0,0,0,0,0,0c0,0,0,0,0,0c0,0,0,0,0,0c0,0,0,0,0,0c0,0,0,0-0.1,0
		c0,0,0,0,0,0c-0.2,0-0.5,0-0.7-0.1c-0.2,0-0.5,0-0.7-0.1c0,0,0,0,0,0c0,0,0,0-0.1,0c0,0,0,0,0,0c0,0,0,0,0,0c0,0,0,0,0,0
		c0,0,0,0,0,0c-0.4-0.1-0.8-0.1-1.3-0.2c-0.1,0-0.3-0.1-0.4-0.1c-0.2,0-0.4-0.1-0.6-0.2c-0.1,0-0.3-0.1-0.4-0.1c0,0,0,0,0,0
		c-0.4-0.1-0.8-0.3-1.2-0.5c-0.4-0.2-0.8-0.3-1.1-0.5c0,0,0,0,0,0c-0.4-0.2-0.7-0.4-1-0.6c0,0,0,0,0,0c-0.3-0.2-0.7-0.5-1-0.7
		c0,0,0,0,0,0c0,0,0,0,0,0c-0.3-0.3-0.6-0.5-0.9-0.8c0,0,0,0,0,0c-0.3-0.3-0.5-0.6-0.8-0.9c0,0,0-0.1-0.1-0.1
		c-0.2-0.3-0.4-0.6-0.6-0.9c-0.2-0.3-0.4-0.7-0.6-1c0-0.1-0.1-0.1-0.1-0.2l0,0l-30.7-68.1l-37.4,68.8l0,0c-0.8,1.4-1.9,2.6-3.3,3.7
		c0,0,0,0,0,0c0,0,0,0,0,0c-0.3,0.2-0.6,0.4-1,0.6c0,0-0.1,0-0.1,0c-0.3,0.2-0.6,0.4-0.9,0.5c-0.1,0-0.1,0-0.2,0.1
		c-0.3,0.1-0.6,0.3-0.9,0.4c-0.4,0.1-0.7,0.3-1.1,0.4c0,0,0,0,0,0c0,0,0,0,0,0c-0.1,0-0.2,0.1-0.3,0.1c-0.2,0.1-0.4,0.1-0.7,0.2
		c0,0,0,0,0,0c0,0,0,0,0,0c0,0,0,0,0,0c0,0,0,0,0,0c-0.3,0.1-0.6,0.1-0.9,0.2c-0.3,0.1-0.6,0.1-0.9,0.1c0,0,0,0,0,0
		c-0.6,0.1-1.3,0.1-1.9,0.1c-0.1,0-0.2,0-0.3,0c0,0,0,0,0,0c0,0,0,0,0,0c-3.6-0.1-7-1.3-9.5-3.4c0,0,0,0,0,0c0,0,0,0,0,0
		c-0.3-0.3-0.6-0.5-0.9-0.8c0,0-0.1-0.1-0.1-0.1c-0.2-0.2-0.5-0.5-0.7-0.8c0-0.1-0.1-0.1-0.1-0.2c-0.2-0.2-0.4-0.5-0.5-0.7
		c-0.2-0.3-0.4-0.6-0.5-1c0,0,0,0,0,0c0,0,0,0,0,0c0,0,0-0.1,0-0.1l0,0L516,379.1l0,0c-0.5-1.1-0.8-2.4-0.8-3.6
		c0-5.9,6-10.8,13.5-10.8c5.8,0,10.8,3,12.6,7.1l0,0l30.7,68.1l37.4-68.7l0,0c0,0,0,0,0,0c0,0,0,0,0,0l0,0c0.1-0.1,0.1-0.2,0.2-0.3
		c0-0.1,0.1-0.2,0.2-0.2c0.1-0.2,0.2-0.3,0.3-0.5c0.1-0.1,0.2-0.3,0.3-0.4c0.1-0.1,0.2-0.3,0.3-0.4c0.1-0.2,0.3-0.3,0.4-0.5
		c0.1-0.1,0.2-0.2,0.3-0.3c0.2-0.2,0.4-0.3,0.5-0.5c0.1-0.1,0.2-0.2,0.3-0.3c0.1,0,0.1-0.1,0.1-0.1c0.1-0.1,0.3-0.2,0.4-0.3
		c0.2-0.1,0.3-0.2,0.5-0.4c0.2-0.1,0.3-0.2,0.5-0.3c0.2-0.1,0.4-0.2,0.6-0.3c0.2-0.1,0.3-0.2,0.5-0.2c0.2-0.1,0.5-0.2,0.8-0.3
		c0.1-0.1,0.3-0.1,0.4-0.2c0.3-0.1,0.6-0.2,0.8-0.3c0.1,0,0.2-0.1,0.3-0.1c0,0,0,0,0,0c0,0,0,0,0.1,0l0,0c0.1,0,0.1,0,0.2,0
		c0.2,0,0.4-0.1,0.6-0.1c0.2-0.1,0.4-0.1,0.7-0.1c0.2,0,0.3-0.1,0.5-0.1c0.3,0,0.6-0.1,0.8-0.1c0.1,0,0.2,0,0.4,0
		c0.4,0,0.9-0.1,1.3-0.1c0.1,0,0.3,0,0.4,0c0,0,0,0,0,0c0,0,0,0,0,0c0.2,0,0.4,0,0.5,0c0.2,0,0.4,0,0.6,0c0.2,0,0.5,0.1,0.7,0.1
		c0.2,0,0.4,0.1,0.7,0.1c0.2,0,0.4,0.1,0.6,0.1c0.3,0.1,0.5,0.1,0.8,0.2c0.2,0,0.3,0.1,0.5,0.1c0.3,0.1,0.5,0.2,0.8,0.3
		c0.1,0.1,0.3,0.1,0.4,0.2c0.2,0.1,0.5,0.2,0.7,0.3c0.2,0.1,0.3,0.2,0.5,0.2c0.2,0.1,0.4,0.2,0.6,0.3c0.2,0.1,0.3,0.2,0.5,0.3
		c0.2,0.1,0.3,0.2,0.5,0.3c0.2,0.1,0.4,0.2,0.5,0.4c0.1,0.1,0.3,0.2,0.4,0.3c0.1,0.1,0.2,0.1,0.2,0.2c0.1,0.1,0.2,0.2,0.3,0.3
		c0.1,0.1,0.2,0.2,0.3,0.3c0.2,0.2,0.3,0.3,0.4,0.5c0.1,0.1,0.2,0.2,0.3,0.4c0.1,0.1,0.2,0.3,0.3,0.4c0.1,0.1,0.2,0.3,0.3,0.5
		c0.1,0.1,0.2,0.3,0.2,0.4c0.1,0.2,0.2,0.3,0.3,0.5c0,0,0,0.1,0,0.1c0,0,0,0,0,0c0,0,0,0,0,0c0,0.1,0.1,0.2,0.1,0.3l0,0l29.8,66.1
		l31.3-66.3l0,0c1.9-4.1,6.8-7,12.6-7c7.4,0,13.5,4.8,13.5,10.8C721.6,376.8,721.3,378,720.7,379.2z"/>
</g>
<g>
	<path class="st76" d="M769.2,533c0.2,1,0.1,2.4-0.1,4.3c-0.4,2.6-1,5.3-1.6,8.1c-0.6,2.8-1.4,6-2.3,9.6c-0.9,3.6-1.5,6.3-1.9,8
		c-4.1,17.2-7.3,31.9-9.5,44.2c-1.6,9.2-2.9,18.2-3.9,26.9c-0.1,1.1-0.2,3.4-0.4,7.1s-0.4,6.4-0.7,8.1c-0.3,1.4-0.7,2.3-1.4,2.9
		c-0.7,0.5-1.8,0.9-3.4,1.2c-2.3,0.4-4.1,0.4-5.3,0c-1.3-0.4-2.1-1.7-2.4-3.7c-0.1-0.4-0.1-1.1-0.1-2.1
		c3.3-33.9,9.4-69.1,18.4-105.4c0.1-0.6,0.4-1.6,0.7-3.2s0.6-2.9,0.9-4.1s0.7-2.2,1.1-3.1c0.7-1.7,2.2-2.7,4.6-3.1
		c1.8-0.3,3.4-0.1,4.8,0.7C768,529.9,768.9,531.2,769.2,533z"/>
	<path class="st76" d="M790.7,576.4c0.1,0.7-0.4,3.9-1.4,9.6c-1.1,5.7-2.3,12.2-3.8,19.4c-1.4,7.2-2.2,11.1-2.4,11.8
		c-0.4,2.5-0.8,6.3-1.4,11.4c-0.5,5.1-1,8.9-1.4,11.4c-0.2,1.6-1,3-2.4,4.2c-1.4,1.3-2.9,2-4.6,2.3c-1.6,0.3-3.2-0.6-4.6-2.7
		c-1.4-2.1-2.3-4.1-2.7-6.1c-0.5-2.6-0.4-5.9,0.3-9.8c0.6-3.9,1.5-7.6,2.5-11c1-3.4,2-7.3,2.9-11.5c0.9-4.2,1.3-7.8,1.3-10.9
		c0-1.9,0.1-4,0.4-6.1s0.8-4.4,1.4-6.8c0.7-2.4,1.7-4.4,3.2-6.1c1.5-1.7,3.2-2.7,5.3-3.1c1.4-0.3,2.9,0,4.5,0.7
		C789.5,573.9,790.4,575,790.7,576.4z M794.4,535.2c0.6,3.2,0,6.3-1.8,9.4c-1.8,3.1-4.2,4.9-7.3,5.5c-1.8,0.3-3.2-0.2-4.4-1.5
		c-1.2-1.3-1.9-2.9-2.3-4.8c-0.5-3.1,0.1-6.1,2-9.2s4.4-4.9,7.4-5.4c2.2-0.4,3.7-0.1,4.5,1C793.4,531.2,794,532.9,794.4,535.2z"/>
	<path class="st76" d="M867.1,536.7c0.4,2.3-0.1,4.3-1.6,5.9c-1.5,1.6-3.6,3-6.3,4c-2.7,1.1-5.6,2.1-8.5,3c-2.9,1-5.9,2.3-8.9,3.9
		c-3,1.6-5.2,3.5-6.8,5.7c-0.8,1.2-1.9,3.9-3.2,8.1c-1.3,4.2-2.3,7.6-2.8,10.2c-1.5,5.9-3.3,14.5-5.3,25.6
		c-2,11.2-3.3,18.2-3.8,21.1c-0.1,0.6-0.4,2.2-0.9,4.8c-0.5,2.6-0.9,4.7-1.4,6.3c-0.4,1.6-1,3.2-1.6,4.6c-1,2.4-3.1,3.9-6.3,4.5
		c-1.7,0.3-3-0.3-4.1-1.8c-1-1.5-1.7-3.2-2.1-5.1c-0.4-2.4-0.3-5.3,0.2-8.7c0.6-3.4,1.3-6.6,2.3-9.6c1-2.9,2.1-6.3,3.3-10.1
		c1.2-3.8,2.1-6.6,2.5-8.7c0.4-1.9,1.3-5,2.6-9.5c1.3-4.5,2.3-8.5,3-11.9c0.7-3.4,1-6.7,0.9-9.7l-0.9,0.2c-1.8,0.3-4.1,1.7-6.9,4
		c-2.8,2.4-5.1,3.7-7,4.1c-2,0.3-3.8,0-5.4-1c-1.7-1-2.7-2.5-3-4.4c-0.3-1.8,0.7-4,3.1-6.4s5.1-4.6,8.2-6.5c3.1-1.9,6.3-3.9,9.8-6.1
		c3.5-2.1,5.8-3.6,6.8-4.4c4.9-12.7,8.3-22.3,10.1-28.8c0.3-0.8,0.6-2.1,1.1-3.9c0.4-1.8,0.8-3.3,1.2-4.3c0.4-1.1,0.9-2.3,1.5-3.7
		s1.5-2.5,2.5-3.4c1-0.9,2.2-1.6,3.6-2.1l0.4-0.1c1.5-0.3,2.9-0.1,4.2,0.6c1.3,0.7,2,1.8,2.3,3.3c0.3,1.6-0.2,4.4-1.5,8.3
		c-1.3,3.9-2.8,8.4-4.5,13.4c-1.8,5-2.9,9-3.4,12.1c1.3-0.5,3.2-1.3,5.8-2.5c2.6-1.2,4.9-2.2,7.1-3c2.2-0.8,4.2-1.4,6-1.7
		c1.8-0.3,3.5-0.2,5,0.4C865.9,533.9,866.8,535.1,867.1,536.7z"/>
	<path class="st76" d="M910.4,555.6c0.4,2,0.3,4.1-0.1,6.3c-0.4,2.2-1,4.3-1.9,6.2s-2.1,4-3.8,6.3c-1.7,2.3-3.2,4.3-4.7,6
		c-1.5,1.8-3.5,3.7-5.9,5.9c-2.5,2.2-4.5,4-6.2,5.4c-1.7,1.4-3.9,3.1-6.7,5.2c-2.8,2.1-4.8,3.6-6.2,4.6c-1.4,1-3.3,2.4-5.9,4.1
		c-2.6,1.8-4.2,2.9-4.9,3.4c-0.2,0.6-0.2,1.3-0.1,1.9c0.4,2.2,1.7,3.8,3.9,4.9c2.3,1.1,4.5,1.5,6.7,1.1c3.2-0.6,7.5-2.5,13-5.9
		c5.5-3.4,9.4-5.2,11.7-5.6c2-0.3,3.1,0.4,3.4,2.1c0.4,2.4,0,4.7-1.2,7c-1.2,2.3-2.9,4.2-5,5.9c-2.2,1.7-4.6,3.2-7.4,4.6
		c-2.7,1.4-5.4,2.5-7.9,3.3c-2.5,0.8-4.8,1.4-6.9,1.7c-5.8,1-11,0.1-15.8-2.7c-4.8-2.8-7.7-7.1-8.7-12.7c-0.8-4.8-0.8-9.2,0.2-13.4
		c1.3-5.8,3.4-11.7,6.1-17.6c2.7-5.9,6-11.5,9.8-16.8c3.8-5.3,8.4-9.9,13.7-13.7c5.3-3.8,10.9-6.3,16.8-7.3c3.6-0.6,6.7-0.1,9.1,1.7
		C908.2,549.2,909.8,552,910.4,555.6z M896.2,561.5c-0.2-0.9-0.9-1.2-2.3-1c-2.5,0.4-5.9,2.3-10.1,5.6c-4.2,3.3-7.3,6.2-9.3,8.7
		c-1.9,2.3-3.8,5.4-5.7,9.1c-1.9,3.8-2.7,6.7-2.4,8.7c1.6-1,3.1-1.9,4.5-2.8c1.4-0.9,3.2-2.1,5.4-3.6c2.2-1.6,4.3-3,6-4.5
		c1.8-1.4,3.6-3,5.6-4.9c1.9-1.8,3.5-3.6,4.7-5.2c1.2-1.6,2.2-3.3,2.9-5.2C896.3,564.8,896.5,563.1,896.2,561.5z"/>
</g>
<g>
	<path d="M859.7,479.5h-70.8c-33.3,0-60.4-27.1-60.4-60.4s27.1-60.4,60.4-60.4h70.8c33.3,0,60.4,27.1,60.4,60.4
		S893,479.5,859.7,479.5z M788.9,381.7c-20.6,0-37.4,16.8-37.4,37.4s16.8,37.4,37.4,37.4h70.8c20.6,0,37.4-16.8,37.4-37.4
		s-16.8-37.4-37.4-37.4H788.9z"/>
</g>
</svg>
